# xmcd
#
# Track frame offsets: 
#        150
#        33040
#        69567
#        98867
#        138165
#        166867
#        191820
#        222825
#        249362
#        278337
#
# Disc length: 4002 seconds
#
# Revision: 3
# Processed by: cddbd v1.5.2PL0 Copyright (c) Steve Scherf et al.
# Submitted via: ExactAudioCopy v0.95b2
#
DISCID=800fa00a
DTITLE=Jerry Weldon and Michael Karn Quintet - Head To Head
DYEAR=1998
DGENRE=Tenor Jazz
TTITLE0=Captain Morgan
TTITLE1=Sweet 7 Lovely
TTITLE2=Who Can I Turn To
TTITLE3=Big 'd'
TTITLE4=Late Last Summer
TTITLE5=All The Way
TTITLE6=Ow
TTITLE7=Far East
TTITLE8=If Ever I Would Leave You
TTITLE9=Ko-Ko
EXTD=YEAR: 1998
EXTT0=
EXTT1=
EXTT2=
EXTT3=
EXTT4=
EXTT5=
EXTT6=
EXTT7=
EXTT8=
EXTT9=
PLAYORDER=
